HIERARCHY
ROOT root
{
	OFFSET	0	13.1	24.9
	CHANNELS 6  Xposition Yposition Zposition Xrotation Yrotation Zrotation
	JOINT spine_1
	{
		OFFSET	0	9.99999	0
		CHANNELS 3  Xrotation Yrotation Zrotation
		JOINT spine_2
		{
			OFFSET	0	112	-10
			CHANNELS 3  Xrotation Yrotation Zrotation
			JOINT spine_3
			{
				OFFSET	0	206.5	19.3
				CHANNELS 3  Xrotation Yrotation Zrotation
				JOINT spine_4
				{
					OFFSET	0	110.4	14.6
					CHANNELS 3  Xrotation Yrotation Zrotation
					JOINT neck_1
					{
						OFFSET	0	71.8	-50.3
						CHANNELS 3  Xrotation Yrotation Zrotation
						JOINT neck_2
						{
							OFFSET	0	86.2	-25.8
							CHANNELS 3  Xrotation Yrotation Zrotation
							JOINT head_ee
							{
								OFFSET	0	179.8	-8.7
								CHANNELS 3  Xrotation Yrotation Zrotation
								End Site
								{
									OFFSET	1	0	0
								}
							}
						}
					}
					JOINT left_clavicle
					{
						OFFSET	-43.2	22.4	-70.8
						CHANNELS 3  Xrotation Yrotation Zrotation
						JOINT left_shoulder
						{
							OFFSET	-93.9	-5.79999	48.7
							CHANNELS 3  Xrotation Yrotation Zrotation
							JOINT left_elbow
							{
								OFFSET	-291.4	-30.8	15.2
								CHANNELS 3  Xrotation Yrotation Zrotation
								JOINT left_lowarm_twist
								{
									OFFSET	-110.7	-3.89999	13.6
									CHANNELS 3  Xrotation Yrotation Zrotation
									JOINT left_hand
									{
										OFFSET	-110.7	-3.89999	13.6
										CHANNELS 3  Xrotation Yrotation Zrotation
										JOINT left_ee
										{
											OFFSET	-80.8	-5.10001	12.1
											CHANNELS 3  Xrotation Yrotation Zrotation
											End Site
											{
												OFFSET	1	0	0
											}
										}
									}
								}
							}
						}
					}
					JOINT right_clavicle
					{
						OFFSET	43.2	22.4	-70.8
						CHANNELS 3  Xrotation Yrotation Zrotation
						JOINT right_shoulder
						{
							OFFSET	93.9	-5.79999	48.7
							CHANNELS 3  Xrotation Yrotation Zrotation
							JOINT right_elbow
							{
								OFFSET	291.4	-30.8	15.2
								CHANNELS 3  Xrotation Yrotation Zrotation
								JOINT right_lowarm_twist
								{
									OFFSET	110.7	-3.89999	13.6
									CHANNELS 3  Xrotation Yrotation Zrotation
									JOINT right_hand
									{
										OFFSET	110.7	-3.89999	13.6
										CHANNELS 3  Xrotation Yrotation Zrotation
										JOINT right_ee
										{
											OFFSET	80.8	-5.10001	12.1
											CHANNELS 3  Xrotation Yrotation Zrotation
											End Site
											{
												OFFSET	1	0	0
											}
										}
									}
								}
							}
						}
					}
				}
			}
		}
	}
	JOINT left_hip
	{
		OFFSET	-82.8	-127.5	0.300001
		CHANNELS 3  Xrotation Yrotation Zrotation
		JOINT left_knee
		{
			OFFSET	-28.2	-396.7	2.2
			CHANNELS 3  Xrotation Yrotation Zrotation
			JOINT left_ankle
			{
				OFFSET	-11.7	-411.3	35.4
				CHANNELS 3  Xrotation Yrotation Zrotation
				JOINT left_toes
				{
					OFFSET	0	-60	-88.6
					CHANNELS 3  Xrotation Yrotation Zrotation
					JOINT left_foot_ee
					{
						OFFSET	-22.5	-16.5	-42.2
						CHANNELS 3  Xrotation Yrotation Zrotation
						End Site
						{
							OFFSET	1	0	0
						}
					}
				}
			}
		}
	}
	JOINT right_hip
	{
		OFFSET	82.8	-127.5	0.300001
		CHANNELS 3  Xrotation Yrotation Zrotation
		JOINT right_knee
		{
			OFFSET	28.2	-396.7	2.2
			CHANNELS 3  Xrotation Yrotation Zrotation
			JOINT right_ankle
			{
				OFFSET	11.7	-411.3	35.4
				CHANNELS 3  Xrotation Yrotation Zrotation
				JOINT right_toes
				{
					OFFSET	0	-60	-88.6
					CHANNELS 3  Xrotation Yrotation Zrotation
					JOINT right_foot_ee
					{
						OFFSET	22.5	-16.5	-42.2
						CHANNELS 3  Xrotation Yrotation Zrotation
						End Site
						{
							OFFSET	1	0	0
						}
					}
				}
			}
		}
	}
}
MOTION
Frames: 7
Frame Time: 0.02
3574.42 741.953 -1474.73 5.97702434617 70.9321339652 -1.03067582859 -1.82102 -0.00225254 -0.582353 -1.82083 0.034808 -0.581316 -1.82103 0.173964 -0.555768 -1.82145 0.0840095 -0.576266 -10.1425 22.0153 8.38592 -10.4561 36.0427 13.8767 -0.0 0.0 -0.0 7.24531 14.7556 13.5456 -24.9677 -32.943 50.1426 0.748342 -20.3401 0.134246 -15.0109 -0.763637 1.75542 -1.40279 19.8468 -0.350175 -0.0 0.0 -0.0 11.8994 27.0005 -23.0355 -11.9552 10.7369 -58.2567 0.478854 13.3447 -0.0560184 23.6159 -0.219183 2.98747 2.92048 20.3523 -10.7223 0.0 0.0 0.0 -7.04595 -11.5331 -2.00739 -0.988302 0.0394308 0.14654 34.9485 25.7724 -4.67896 -12.0123 0.0 0.0 -0.0 0.0 -0.0 6.63793 -4.3227 -1.57028 -12.8738 -0.312468 -1.94681 16.855 22.2135 2.68254 -9.27029 0.0 0.0 0.0 0.0 0.0 
3570.3852659 737.778 -1471.3974003 4.65989082123 67.8349001764 -0.000654736901017 -1.6037 0.0768785 -0.558424 -1.60353 0.112256 -0.552401 -1.60452 0.240231 -0.509939 -1.60485 0.156682 -0.541479 -11.2281 21.8538 7.19137 -11.8071 36.8078 13.1299 -0.0 0.0 -0.0 7.77218 18.2656 14.1204 -22.4981 -33.6714 46.3393 1.00825 -26.5395 0.237783 -16.7066 -0.878215 1.93979 -1.39619 23.1649 1.18635 -0.0 0.0 -0.0 11.9065 25.7658 -23.1938 -15.4607 12.0365 -57.0626 0.453119 12.6512 -0.0502302 23.0272 -0.228763 2.91288 2.79633 21.5318 -9.30868 0.0 0.0 0.0 -6.12041 -7.02853 -1.00899 -2.70609 0.101922 0.402751 34.7454 25.8817 -4.66045 -12.0829 0.0 0.0 -0.0 0.0 -0.0 6.78277 -3.65672 -1.01382 -13.9116 -0.318475 -2.10593 18.0662 17.3835 2.73722 -10.6371 0.0 0.0 0.0 0.0 0.0 
3570.16216173 743.509 -1469.19851618 4.20161542228 64.915262734 0.108332675365 -1.56767 0.0748681 -0.541216 -1.56752 0.109155 -0.535356 -1.56845 0.232859 -0.494265 -1.56876 0.151878 -0.524837 -11.4149 21.4382 6.02319 -12.0767 36.8072 11.9925 -0.0 0.0 -0.0 8.42633 20.41 14.9129 -22.4658 -33.9966 43.7141 1.21122 -30.9626 0.335487 -18.3839 -0.996881 2.11877 -1.92868 25.5259 -0.735839 -0.0 0.0 -0.0 12.0066 25.4826 -23.4537 -17.113 12.9575 -56.5077 0.413272 11.5701 -0.0418698 22.4946 -0.236767 2.84533 2.7662 22.8279 -8.46493 0.0 0.0 0.0 -5.09004 -4.06359 -0.679191 -5.08428 0.175692 0.760251 32.6895 25.5218 -4.42553 -12.1336 0.0 0.0 -0.0 0.0 -0.0 7.02495 -3.79708 -0.6468 -13.6753 -0.317361 -2.06969 16.083 15.5695 2.42649 -11.7295 0.0 0.0 0.0 0.0 0.0 
3570.08596168 743.509 -1469.25801573 4.08135616223 64.1237898334 0.241546506598 -1.56767 0.0748681 -0.541216 -1.56752 0.109155 -0.535356 -1.56845 0.232859 -0.494265 -1.56876 0.151878 -0.524837 -11.4149 21.4382 6.02319 -12.0767 36.8072 11.9925 -0.0 0.0 -0.0 8.42633 20.41 14.9129 -22.4658 -33.9966 43.7141 1.21122 -30.9626 0.335487 -18.3839 -0.996881 2.11877 -1.92868 25.5259 -0.735839 -0.0 0.0 -0.0 12.0066 25.4826 -23.4537 -17.113 12.9575 -56.5077 0.413272 11.5701 -0.0418698 22.4946 -0.236767 2.84533 2.7662 22.8279 -8.46493 0.0 0.0 0.0 -5.09004 -4.06359 -0.679191 -5.08428 0.175692 0.760251 32.6895 25.5218 -4.42553 -12.1336 0.0 0.0 -0.0 0.0 -0.0 7.02495 -3.79708 -0.6468 -13.6753 -0.317361 -2.06969 16.083 15.5695 2.42649 -11.7295 0.0 0.0 0.0 0.0 0.0 
3570.02634652 743.509 -1469.30576649 3.99162383754 63.4984001114 0.341542716686 -1.56767 0.0748681 -0.541216 -1.56752 0.109155 -0.535356 -1.56845 0.232859 -0.494265 -1.56876 0.151878 -0.524837 -11.4149 21.4382 6.02319 -12.0767 36.8072 11.9925 -0.0 0.0 -0.0 8.42633 20.41 14.9129 -22.4658 -33.9966 43.7141 1.21122 -30.9626 0.335487 -18.3839 -0.996881 2.11877 -1.92868 25.5259 -0.735839 -0.0 0.0 -0.0 12.0066 25.4826 -23.4537 -17.113 12.9575 -56.5077 0.413272 11.5701 -0.0418698 22.4946 -0.236767 2.84533 2.7662 22.8279 -8.46493 0.0 0.0 0.0 -5.09004 -4.06359 -0.679191 -5.08428 0.175692 0.760251 32.6895 25.5218 -4.42553 -12.1336 0.0 0.0 -0.0 0.0 -0.0 7.02495 -3.79708 -0.6468 -13.6753 -0.317361 -2.06969 16.083 15.5695 2.42649 -11.7295 0.0 0.0 0.0 0.0 0.0 
3569.93561866 743.509 -1469.38053049 3.86183120324 62.5356853331 0.487185171716 -1.56767 0.0748681 -0.541216 -1.56752 0.109155 -0.535356 -1.56845 0.232859 -0.494265 -1.56876 0.151878 -0.524837 -11.4149 21.4382 6.02319 -12.0767 36.8072 11.9925 -0.0 0.0 -0.0 8.42633 20.41 14.9129 -22.4658 -33.9966 43.7141 1.21122 -30.9626 0.335487 -18.3839 -0.996881 2.11877 -1.92868 25.5259 -0.735839 -0.0 0.0 -0.0 12.0066 25.4826 -23.4537 -17.113 12.9575 -56.5077 0.413272 11.5701 -0.0418698 22.4946 -0.236767 2.84533 2.7662 22.8279 -8.46493 0.0 0.0 0.0 -5.09004 -4.06359 -0.679191 -5.08428 0.175692 0.760251 32.6895 25.5218 -4.42553 -12.1336 0.0 0.0 -0.0 0.0 -0.0 7.02495 -3.79708 -0.6468 -13.6753 -0.317361 -2.06969 16.083 15.5695 2.42649 -11.7295 0.0 0.0 0.0 0.0 0.0 
3569.83684149 743.509 -1469.46491139 3.72905428469 61.4716855036 0.637552689328 -1.56767 0.0748681 -0.541216 -1.56752 0.109155 -0.535356 -1.56845 0.232859 -0.494265 -1.56876 0.151878 -0.524837 -11.4149 21.4382 6.02319 -12.0767 36.8072 11.9925 -0.0 0.0 -0.0 8.42633 20.41 14.9129 -22.4658 -33.9966 43.7141 1.21122 -30.9626 0.335487 -18.3839 -0.996881 2.11877 -1.92868 25.5259 -0.735839 -0.0 0.0 -0.0 12.0066 25.4826 -23.4537 -17.113 12.9575 -56.5077 0.413272 11.5701 -0.0418698 22.4946 -0.236767 2.84533 2.7662 22.8279 -8.46493 0.0 0.0 0.0 -5.09004 -4.06359 -0.679191 -5.08428 0.175692 0.760251 32.6895 25.5218 -4.42553 -12.1336 0.0 0.0 -0.0 0.0 -0.0 7.02495 -3.79708 -0.6468 -13.6753 -0.317361 -2.06969 16.083 15.5695 2.42649 -11.7295 0.0 0.0 0.0 0.0 0.0 
